# xmcd
#
# Track frame offsets:
#	150
#	15962
#	34937
#	50087
#	65087
#	81512
#	103787
#	117212
#	137312
#	159737
#	174737
#
# Disc length: 2518 seconds
#
# Revision: 2
# Processed by: cddbd v1.5.2PL0 Copyright (c) Steve Scherf et al.
# Submitted via: dBpowerAMP V4.0
#
DISCID=9409d40b
DTITLE=לאה שבת - חום שאתה מחפש
DYEAR=1990
DGENRE=Blues
TTITLE0=רק החיים
TTITLE1=ירח בשמיים
TTITLE2=קסם היה בילבול
TTITLE3=שיר ערש ישן
TTITLE4=חום שאתה מחפש
TTITLE5=הרגלים
TTITLE6=ערב ביקורים
TTITLE7=כמו אבן
TTITLE8=סרט מלחמה
TTITLE9=אם לא אדע לשמור
TTITLE10=לא זוכרת איזה חורף
EXTD=
EXTT0=
EXTT1=
EXTT2=
EXTT3=
EXTT4=
EXTT5=
EXTT6=
EXTT7=
EXTT8=
EXTT9=
EXTT10=
PLAYORDER=
